700 0 2 0           
11 SatConsumer 24 ASM 219.0.0.4610 Unknown 24 Wed Jan  4 15:44:50 2017 
10 9.999999999999999547e-07 1.000000000000000036e-10 
body $2 -1 $-1 $3 $-1 $4 #
body $5 -1 $-1 $6 $-1 $7 #
rgb_color-st-attrib $-1 -1 $-1 $-1 $0 0.3215686274509804154 0.7019607843137254388 0.9372549019607843146 #
lump $-1 -1 $-1 $-1 $8 $0 #
transform $-1 -1 1 0 0 0 1 0 0 0 1 0 0 0 1 no_rotate no_reflect no_shear #
rgb_color-st-attrib $-1 -1 $-1 $-1 $1 0.3215686274509804154 0.7019607843137254388 0.9372549019607843146 #
lump $-1 -1 $-1 $-1 $9 $1 #
transform $-1 -1 1 0 0 0 1 0 0 0 1 0 0 0 1 no_rotate no_reflect no_shear #
shell $-1 -1 $-1 $-1 $-1 $10 $-1 $3 #
shell $-1 -1 $-1 $-1 $-1 $11 $-1 $6 #
face $-1 -1 $-1 $12 $13 $8 $-1 $14 forward single #
face $-1 -1 $-1 $15 $16 $9 $-1 $17 reversed single #
face $-1 -1 $-1 $18 $19 $8 $-1 $20 reversed single #
loop $-1 -1 $-1 $21 $22 $10 #
cone-surface $-1 -1 $-1 -17.5 11.5 1.225000000000000533 0 0 1 0.4199999999999996514 0 0 1 I I -0.7071067811865474617 -0.7071067811865474617 0.4199999999999996514 forward I I I I #
face $-1 -1 $-1 $23 $24 $9 $-1 $25 reversed single #
loop $-1 -1 $-1 $26 $27 $11 #
torus-surface $-1 -1 $-1 -17.5 15.8299710445747337 1.179999999999996163 1 -2.719262146893782111e-32 -2.220446049250313081e-16 0.8000000000000000444 0.09999999999999999167 2.220446049250313081e-16 1.224646799147353207e-16 1 forward_v I I I I #
face $-1 -1 $-1 $28 $29 $8 $-1 $30 reversed single #
loop $-1 -1 $-1 $31 $32 $12 #
cone-surface $-1 -1 $-1 -17.5 11.5 4.200000000000000178 0 0 1 0.4450000000000000067 0 0 1 I I 0 1 0.4450000000000000067 forward I I I I #
loop $-1 -1 $-1 $-1 $33 $10 #
coedge $-1 -1 $-1 $22 $22 $34 $35 forward $13 $-1 #
face $-1 -1 $-1 $36 $37 $9 $-1 $38 forward single #
loop $-1 -1 $-1 $-1 $39 $15 #
plane-surface $-1 -1 $-1 -17.5 14.39997104457473753 0.1999999999999975131 0 -3.673940397442059375e-16 -1 1 0 0 forward_v I I I I #
loop $-1 -1 $-1 $-1 $40 $11 #
coedge $-1 -1 $-1 $27 $27 $41 $42 reversed $16 $-1 #
face $-1 -1 $-1 $43 $44 $8 $-1 $45 forward single #
loop $-1 -1 $-1 $-1 $34 $18 #
plane-surface $-1 -1 $-1 -17.5 11.5 1.200000000000000178 0 0 -1 -1 0 0 forward_v I I I I #
loop $-1 -1 $-1 $-1 $46 $12 #
coedge $-1 -1 $-1 $32 $32 $47 $48 reversed $19 $-1 #
coedge $-1 -1 $-1 $33 $33 $46 $49 forward $21 $-1 #
coedge $-1 -1 $-1 $34 $34 $22 $35 reversed $29 $-1 #
edge $-1 -1 $-1 $50 -3.141592653589793116 $50 3.141592653589793116 $34 $51 forward @7 unknown #
face $-1 -1 $-1 $52 $53 $9 $-1 $54 reversed single #
loop $-1 -1 $-1 $-1 $55 $23 #
plane-surface $-1 -1 $-1 -17.5 13.89997104457473753 0 0 -3.673940397442059375e-16 -1 1 0 0 forward_v I I I I #
coedge $-1 -1 $-1 $56 $56 $57 $58 reversed $24 $-1 #
coedge $-1 -1 $-1 $40 $40 $59 $60 reversed $26 $-1 #
coedge $-1 -1 $-1 $41 $41 $27 $42 forward $61 $-1 #
edge $-1 -1 $-1 $62 0 $62 0.7516894961339916081 $41 $63 forward @7 unknown #
face $-1 -1 $-1 $64 $65 $8 $-1 $66 forward single #
loop $-1 -1 $-1 $67 $68 $28 #
cone-surface $-1 -1 $-1 -17.5 11.5 7.675000000000000711 0 0 -1 0.4949999999999996625 0 0 1 I I 0.7071067811865474617 0.7071067811865474617 0.4949999999999996625 forward I I I I #
coedge $-1 -1 $-1 $46 $46 $33 $49 reversed $31 $-1 #
coedge $-1 -1 $-1 $47 $47 $32 $48 forward $65 $-1 #
edge $-1 -1 $-1 $69 -3.141592653589793116 $69 3.141592653589793116 $47 $70 reversed @7 unknown #
edge $-1 -1 $-1 $71 -3.141592653589793116 $71 3.141592653589793116 $46 $72 forward @7 unknown #
vertex $-1 -1 $-1 $35 $73 #
ellipse-curve $-1 -1 $-1 -17.5 11.5 1.200000000000000178 0 0 -1 0.3949999999999992961 0 0 1 I I #
face $-1 -1 $-1 $74 $75 $9 $-1 $76 forward single #
loop $-1 -1 $-1 $-1 $77 $36 #
plane-surface $-1 -1 $-1 -16.75 13.89997104457473753 -2.5 -1 0 0 0 -3.673940397442059375e-16 -1 forward_v I I I I #
coedge $-1 -1 $-1 $78 $79 $80 $81 reversed $37 $-1 #
coedge $-1 -1 $-1 $39 $39 $82 $83 reversed $24 $-1 #
coedge $-1 -1 $-1 $84 $85 $39 $58 forward $86 $-1 #
edge $-1 -1 $-1 $87 -4.414720641450785799 $88 1.273127987860984023 $57 $89 reversed @7 unknown #
coedge $-1 -1 $-1 $59 $59 $40 $60 forward $90 $-1 #
edge $-1 -1 $-1 $91 0 $91 0.592972325759638208 $59 $92 forward @7 unknown #
loop $-1 -1 $-1 $93 $41 $94 #
vertex $-1 -1 $-1 $42 $95 #
intcurve-curve $-1 -1 $-1 forward { surfintcur full nubs 3 periodic 19 
	0 3 0.02545023361216086286 2 0.05367588252375198044 2 0.09092418802515009335 2 0.1411105112352414037 2 
	0.2074371382369257777 2 0.2843292474469695241 2 0.3283466265450013521 2 0.3576364734399601342 2 0.3788750401336210549 2 
	0.3983629260629846791 2 0.4213385009430409833 2 0.4562177104538413519 2 0.5122874259171102951 2 0.5920401680765712271 2 
	0.6520588091419369237 2 0.6960023521072792319 2 0.728675719918461251 2 0.7516894961339916081 3 
	-17.5 15.1999710445748093 0.537271441431066421 
	-17.49151658879594606 15.1999710445748093 0.537271441431066421 
	-17.4831426750878407 15.19982493495244213 0.5389241933322814759 
	-17.46614489530004732 15.1992599168473852 0.5456310982945904442 
	-17.45791075496026679 15.1988256539488269 0.550910710228299294 
	-17.44078725225953264 15.19769369642657075 0.5659444859519116022 
	-17.43258860870571425 15.19696545970965218 0.5765260880316542824 
	-17.41692751984069432 15.19541089191853089 0.6034927246683405855 
	-17.40986951743240851 15.19454946126196937 0.6219971197119207318 
	-17.39943627102417167 15.19322253764007158 0.6708823783907025273 
	-17.39853650192102918 15.19308476575711353 0.700662071061257663 
	-17.40620888560682999 15.19409501865957957 0.7631795210680447639 
	-17.4162135693280149 15.19540556691166167 0.7946885852294531816 
	-17.43795191522021781 15.19744225785150782 0.8341585512270341951 
	-17.44720846557930116 15.19818170780359345 0.8466052405335311448 
	-17.46433892591316095 15.19915412327847015 0.8623280540121545101 
	-17.47221439271116594 15.19950834570282616 0.8678119324928186273 
	-17.48746542773151447 15.19989371036742831 0.8737137251580708863 
	-17.4942049128347179 15.19998147698360924 0.8750350432093174646 
	-17.50765959591091558 15.19995956487114697 0.8747032471099505102 
	-17.51395566867724085 15.19986588863181254 0.8732908321768029225 
	-17.52721184752717676 15.19951156821488958 0.8678568556814951762 
	-17.533866604739341 15.19923028998008974 0.8635024987903765492 
	-17.54902984747779371 15.19842269891759479 0.8505619149698340209 
	-17.5569941595030059 15.19783227298010786 0.8407226158519609527 
	-17.57437468980006656 15.19635167855059876 0.8137383453074757966 
	-17.58350301350366607 15.19533631835419385 0.7930788429419859398 
	-17.59911536481877903 15.19345030495418492 0.7367431872214407207 
	-17.60232889552943902 15.1929687123817363 0.7002751547357863871 
	-17.59522079106263703 15.19390819245357704 0.6390748180500960274 
	-17.58818640456592775 15.19484304791680707 0.6148740335447637761 
	-17.57002340241270844 15.19673493176089885 0.5797755746874049265 
	-17.56061506220084567 15.1975952292299521 0.5672782829619027467 
	-17.5418695520600636 15.19884428423261724 0.550644730661034032 
	-17.53270041326082662 15.19932828950656933 0.5447989876178684909 
	-17.51519414026664379 15.19985205334305434 0.5386218796974926448 
	-17.50767125873851171 15.1999710445748093 0.537271441431066421 
	-17.5 15.1999710445748093 0.537271441431066421 
	1.852301638639713762e-05 
	
	torus -17.5 15.8299710445747337 1.179999999999996163 1 -2.719262146893782111e-32 -2.220446049250313081e-16 0.8000000000000000444 0.09999999999999999167 2.220446049250313081e-16 1.224646799147353207e-16 1 forward_v I I I I 
	cone -17.5 14.44997104457473824 -2.5 0 3.673940397442059375e-16 1 0.5303300858899105963 0.5303300858899105963 -1.948401126529859708e-16 1 I I 0 1 0.5999999999999999778 forward I I I I 
	nullbs 
	nullbs 
	I I 
	0 
	0 
	0 
	} I I #
face $-1 -1 $-1 $96 $97 $8 $-1 $98 forward single #
loop $-1 -1 $-1 $99 $47 $43 #
plane-surface $-1 -1 $-1 -17.5 11.5 7.700000000000001066 0 0 1 1 0 0 forward_v I I I I #
loop $-1 -1 $-1 $-1 $100 $28 #
coedge $-1 -1 $-1 $68 $68 $101 $102 forward $44 $-1 #
vertex $-1 -1 $-1 $48 $103 #
ellipse-curve $-1 -1 $-1 -17.5 11.5 7.700000000000001066 0 0 1 0.4450000000000000067 0 0 1 I I #
vertex $-1 -1 $-1 $49 $104 #
ellipse-curve $-1 -1 $-1 -17.5 11.5 1.250000000000000888 -0 -0 1 0.4450000000000000067 0 0 1 I I #
point $-1 -1 $-1 -17.89499999999999957 11.5 1.200000000000000178 #
face $-1 -1 $-1 $94 $105 $9 $-1 $106 reversed single #
loop $-1 -1 $-1 $-1 $107 $52 #
cone-surface $-1 -1 $-1 -17.5 13.34997104457473682 -2.5 0 3.673940397442059375e-16 1 -0.5303300858899105963 -0.5303300858899105963 1.948401126529859708e-16 1 I I 0 1 0.5999999999999999778 forward I I I I #
coedge $-1 -1 $-1 $108 $109 $110 $111 reversed $53 $-1 #
coedge $-1 -1 $-1 $112 $55 $109 $113 forward $37 $-1 #
coedge $-1 -1 $-1 $55 $112 $114 $115 forward $37 $-1 #
coedge $-1 -1 $-1 $116 $110 $55 $81 forward $93 $-1 #
edge $-1 -1 $-1 $117 -0.785398163397448279 $118 2.356194490192344837 $55 $119 forward @7 unknown #
coedge $-1 -1 $-1 $120 $121 $56 $83 forward $122 $-1 #
edge $-1 -1 $-1 $88 -7.556313295040572697 $87 -1.868464665728802654 $82 $123 reversed @7 unknown #
coedge $-1 -1 $-1 $124 $57 $121 $125 forward $86 $-1 #
coedge $-1 -1 $-1 $57 $124 $120 $126 forward $86 $-1 #
loop $-1 -1 $-1 $-1 $57 $127 #
vertex $-1 -1 $-1 $58 $128 #
vertex $-1 -1 $-1 $125 $129 #
ellipse-curve $-1 -1 $-1 -17.5 14.39997104457473931 0.1999999999999975131 -0 3.673940397442059375e-16 1 0.5230000000000000204 0 0 1 I I #
loop $-1 -1 $-1 $130 $59 $131 #
vertex $-1 -1 $-1 $60 $132 #
intcurve-curve $-1 -1 $-1 forward { surfintcur full nubs 3 periodic 17 
	0 3 0.03700438191073603111 2 0.07403806867912919587 2 0.111111843253480877 2 0.148227431291825168 2 
	0.1853517218051806137 2 0.2224458946200893461 2 0.2594900559966553111 2 0.2964861628798203252 2 0.3334822697629853394 2 
	0.3705264311395513044 2 0.4076206039544581494 2 0.444744894467814289 2 0.48186048250615926 2 0.5189342570805089982 2 
	0.5559679438489021353 2 0.592972325759638208 3 
	-17.5 14.93136100679416245 1.129999999999997229 
	-17.51233479397024695 14.93136100679416245 1.129999999999997229 
	-17.52685152784594891 14.93425173723427157 1.129999999999997229 
	-17.54964932192386229 14.94370325610318417 1.129999999999997229 
	-17.56196183167420344 14.95193982921056453 1.129999999999997229 
	-17.57942066770087663 14.96941558138960993 1.129999999999997229 
	-17.58765223863205307 14.98175071826746496 1.129999999999997229 
	-17.59710783901631714 15.00460140781999563 1.129999999999997229 
	-17.60000000000000142 15.0191632107617199 1.129999999999997229 
	-17.60000000000000142 15.04390983694561967 1.129999999999997229 
	-17.5971067806222905 15.05847497865490858 1.129999999999997229 
	-17.58764997031791566 15.08133566530886149 1.129999999999997229 
	-17.57941632948474364 15.09367922977468268 1.129999999999997229 
	-17.56195467003774624 15.11116670669358086 1.129999999999997229 
	-17.54964143224756157 15.11940972542807415 1.129999999999997229 
	-17.5268450422228419 15.12886654390024965 1.129999999999997229 
	-17.51233203562772189 15.13175904238628711 1.129999999999997229 
	-17.48766796437227811 15.13175904238628711 1.129999999999997229 
	-17.47315495777716166 15.12886654390024965 1.129999999999997229 
	-17.45035856775244199 15.11940972542807415 1.129999999999997229 
	-17.43804532996225731 15.11116670669358086 1.129999999999997229 
	-17.42058367051525991 15.09367922977468268 1.129999999999997229 
	-17.41235002968209145 15.08133566530885972 1.129999999999997229 
	-17.4028932193777166 15.05847497865490858 1.129999999999997229 
	-17.40000000000000213 15.04390983694561967 1.129999999999997229 
	-17.40000000000000213 15.0191632107617199 1.129999999999997229 
	-17.40289216098368641 15.00460140781999563 1.129999999999997229 
	-17.41234776136795404 14.98175071826746496 1.129999999999997229 
	-17.42057933229912692 14.96941558138960815 1.129999999999997229 
	-17.43803816832579656 14.95193982921056453 1.129999999999997229 
	-17.45035067807614126 14.94370325610318417 1.129999999999997229 
	-17.47314847215405464 14.93425173723427157 1.129999999999997229 
	-17.4876652060297566 14.93136100679416245 1.129999999999997229 
	-17.5 14.93136100679416245 1.129999999999997229 
	0.0002216557542637002628 
	
	torus -17.5 15.8299710445747337 1.179999999999996163 1 -2.719262146893782111e-32 -2.220446049250313081e-16 0.8000000000000000444 0.09999999999999999167 2.220446049250313081e-16 1.224646799147353207e-16 1 forward_v I I I I 
	plane -17.5 13.89997104457473931 1.129999999999997229 0 3.673940397442059375e-16 1 1 0 0 reverse_v I I I I 
	nullbs 
	nullbs 
	I I 
	0 
	0 
	0 
	} I I #
loop $-1 -1 $-1 $-1 $133 $94 #
face $-1 -1 $-1 $131 $61 $9 $-1 $134 forward single #
point $-1 -1 $-1 -17.5 15.19997104457473824 0.537271441431135699 #
face $-1 -1 $-1 $135 $136 $8 $-1 $137 reversed single #
loop $-1 -1 $-1 $138 $139 $64 #
cone-surface $-1 -1 $-1 -17.5 11.5 4.200000000000000178 0 0 1 0.5200000000000000178 0 0 1 I I 0 1 0.4450000000000000067 forward I I I I #
loop $-1 -1 $-1 $-1 $101 $43 #
coedge $-1 -1 $-1 $100 $100 $140 $141 forward $67 $-1 #
coedge $-1 -1 $-1 $101 $101 $68 $102 reversed $99 $-1 #
edge $-1 -1 $-1 $142 -3.141592653589793116 $142 3.141592653589793116 $101 $143 forward @7 unknown #
point $-1 -1 $-1 -17.94500000000000028 11.5 7.700000000000001066 #
point $-1 -1 $-1 -17.94500000000000028 11.5 1.250000000000000888 #
loop $-1 -1 $-1 $-1 $144 $74 #
plane-surface $-1 -1 $-1 -18.25 13.89997104457473753 -2.5 1 0 0 0 3.673940397442059375e-16 1 forward_v I I I I #
coedge $-1 -1 $-1 $145 $146 $147 $148 forward $75 $-1 #
coedge $-1 -1 $-1 $149 $77 $150 $151 reversed $53 $-1 #
coedge $-1 -1 $-1 $77 $149 $78 $113 reversed $53 $-1 #
coedge $-1 -1 $-1 $80 $133 $77 $111 forward $93 $-1 #
edge $-1 -1 $-1 $152 -3.629999999999998117 $117 -2.5 $77 $153 forward @7 tangent #
coedge $-1 -1 $-1 $79 $78 $154 $155 reversed $37 $-1 #
edge $-1 -1 $-1 $117 -0.5500000000000007105 $156 0.5500000000000007105 $109 $157 forward @7 unknown #
coedge $-1 -1 $-1 $158 $144 $79 $115 reversed $105 $-1 #
edge $-1 -1 $-1 $159 -0.5500000000000007105 $118 0.5500000000000007105 $114 $160 forward @7 unknown #
coedge $-1 -1 $-1 $133 $80 $144 $161 forward $93 $-1 #
vertex $-1 -1 $-1 $113 $162 #
vertex $-1 -1 $-1 $81 $163 #
ellipse-curve $-1 -1 $-1 -17.5 14.44997104457473824 0 0 3.673940397442059375e-16 1 0.5303300858899105963 0.5303300858899105963 -1.948401126529859708e-16 1 I I #
coedge $-1 -1 $-1 $164 $82 $85 $126 reversed $122 $-1 #
coedge $-1 -1 $-1 $82 $164 $84 $125 reversed $122 $-1 #
loop $-1 -1 $-1 $-1 $82 $165 #
ellipse-curve $-1 -1 $-1 -17.5 13.39997104457473931 0.1999999999999979572 -0 3.673940397442059375e-16 1 0.5230000000000000204 0 0 1 I I #
coedge $-1 -1 $-1 $85 $84 $166 $167 reversed $86 $-1 #
edge $-1 -1 $-1 $88 -3.899999999999999911 $168 -2.970000000000000639 $121 $169 forward @7 unknown #
edge $-1 -1 $-1 $170 2.970000000000000639 $87 3.899999999999999911 $120 $171 forward @7 unknown #
face $-1 -1 $-1 $-1 $86 $9 $-1 $172 reversed single #
point $-1 -1 $-1 -17.65339165557487178 13.89997104457473753 0.1999999999999978739 #
point $-1 -1 $-1 -17.34660834442512467 13.89997104457474109 0.1999999999999978739 #
loop $-1 -1 $-1 $173 $174 $131 #
face $-1 -1 $-1 $165 $90 $9 $-1 $175 reversed single #
point $-1 -1 $-1 -17.5 14.93136100679416067 1.129999999999997229 #
coedge $-1 -1 $-1 $110 $116 $174 $176 forward $93 $-1 #
cone-surface $-1 -1 $-1 -17.5 14.44997104457473824 -2.5 0 3.673940397442059375e-16 1 0.5303300858899105963 0.5303300858899105963 -1.948401126529859708e-16 1 I I 0 1 0.5999999999999999778 forward I I I I #
face $-1 -1 $-1 $177 $178 $8 $-1 $179 forward single #
loop $-1 -1 $-1 $-1 $180 $96 #
sphere-surface $-1 -1 $-1 -17.5 12.40000000000000036 7.299999999999999822 0.2999999999999999889 1 0 0 0 0 1 forward_v I I I I #
loop $-1 -1 $-1 $-1 $140 $64 #
coedge $-1 -1 $-1 $181 $182 $183 $184 forward $97 $-1 #
coedge $-1 -1 $-1 $140 $140 $100 $141 reversed $138 $-1 #
edge $-1 -1 $-1 $185 -3.141592653589793116 $185 3.141592653589793116 $140 $186 forward @7 unknown #
vertex $-1 -1 $-1 $102 $187 #
ellipse-curve $-1 -1 $-1 -17.5 11.5 7.700000000000001066 -0 -0 -1 0.4699999999999993072 0 0 1 I I #
coedge $-1 -1 $-1 $114 $188 $116 $161 reversed $105 $-1 #
coedge $-1 -1 $-1 $154 $107 $158 $189 forward $75 $-1 #
coedge $-1 -1 $-1 $107 $154 $149 $190 forward $75 $-1 #
coedge $-1 -1 $-1 $150 $191 $107 $148 reversed $130 $-1 #
edge $-1 -1 $-1 $192 -2.356194490192344837 $193 0.785398163397448279 $147 $194 reversed @7 unknown #
coedge $-1 -1 $-1 $109 $108 $146 $190 reversed $53 $-1 #
coedge $-1 -1 $-1 $174 $147 $108 $151 forward $130 $-1 #
edge $-1 -1 $-1 $192 -0.5499999999999989342 $152 0.5500000000000024869 $108 $195 reversed @7 unknown #
vertex $-1 -1 $-1 $176 $196 #
straight-curve $-1 -1 $-1 -16.75 14.44997104457473824 -2.5 0 -3.673940397442059375e-16 -1 I I #
coedge $-1 -1 $-1 $146 $145 $112 $155 forward $75 $-1 #
edge $-1 -1 $-1 $159 -0.785398163397448279 $156 2.356194490192344837 $112 $197 forward @7 unknown #
vertex $-1 -1 $-1 $155 $198 #
straight-curve $-1 -1 $-1 -16.75 13.89997104457473753 0 0 -1 3.673940397442059375e-16 F -10010.00000100000034 F 9990.000001000000339 #
coedge $-1 -1 $-1 $188 $114 $145 $189 reversed $105 $-1 #
vertex $-1 -1 $-1 $115 $199 #
straight-curve $-1 -1 $-1 -18.25 13.89997104457473753 0 0 1 -3.673940397442059375e-16 F -9990.000001000000339 F 10010.00000100000034 #
edge $-1 -1 $-1 $118 2.5 $200 3.629999999999998117 $144 $201 forward @7 tangent #
point $-1 -1 $-1 -16.75 14.44997104457473824 0 #
point $-1 -1 $-1 -18.25 14.44997104457473824 0 #
coedge $-1 -1 $-1 $121 $120 $202 $203 reversed $122 $-1 #
face $-1 -1 $-1 $127 $122 $9 $-1 $204 reversed single #
coedge $-1 -1 $-1 $202 $202 $124 $167 forward $173 $-1 #
edge $-1 -1 $-1 $170 -4.414720641450772476 $168 1.273127987860977584 $166 $205 reversed @7 unknown #
vertex $-1 -1 $-1 $203 $206 #
straight-curve $-1 -1 $-1 -17.34660834442512822 13.89997104457474109 4.099999999999997868 -0 3.673940397442059375e-16 1 F -5.236222655754259492 F -1.833555688491475433 #
vertex $-1 -1 $-1 $167 $207 #
straight-curve $-1 -1 $-1 -17.65339165557487178 13.89997104457474109 4.099999999999997868 0 -3.673940397442059375e-16 -1 F 1.833555688491475433 F 5.236222655754259492 #
cone-surface $-1 -1 $-1 -17.5 14.39997104457474109 4.099999999999997868 0 -3.673940397442059375e-16 -1 0.5230000000000000204 0 0 1 I I 0 1 0.4450000000000000067 forward I I I I #
loop $-1 -1 $-1 $-1 $202 $131 #
coedge $-1 -1 $-1 $191 $150 $133 $176 reversed $130 $-1 #
plane-surface $-1 -1 $-1 -17.5 13.89997104457473931 1.129999999999997229 0 -3.673940397442059375e-16 -1 1 0 0 forward_v I I I I #
edge $-1 -1 $-1 $200 -2.356194490192344837 $152 0.785398163397448279 $174 $208 reversed @7 unknown #
face $-1 -1 $-1 $209 $210 $8 $-1 $211 reversed single #
loop $-1 -1 $-1 $-1 $212 $135 #
cone-surface $-1 -1 $-1 -17.5 11.55000000000000071 3.600000000000000089 0 0 -1 -0.5303300858899105963 0.5303300858899105963 0 1 I I 0 1 0.5999999999999999778 forward I I I I #
coedge $-1 -1 $-1 $213 $213 $214 $215 reversed $136 $-1 #
coedge $-1 -1 $-1 $216 $139 $217 $218 forward $97 $-1 #
coedge $-1 -1 $-1 $139 $216 $219 $220 reversed $97 $-1 #
coedge $-1 -1 $-1 $221 $222 $139 $184 reversed $223 $-1 #
edge $-1 -1 $-1 $224 3.099999999999999645 $225 3.400000000000001243 $139 $226 forward @7 unknown #
vertex $-1 -1 $-1 $141 $227 #
ellipse-curve $-1 -1 $-1 -17.5 11.5 7.650000000000000355 0 0 1 0.5200000000000000178 0 0 1 I I #
point $-1 -1 $-1 -17.96999999999999886 11.5 7.700000000000001066 #
coedge $-1 -1 $-1 $144 $158 $191 $228 reversed $105 $-1 #
edge $-1 -1 $-1 $193 -3.629999999999998117 $159 -2.5 $158 $229 forward @7 tangent #
edge $-1 -1 $-1 $156 2.5 $192 3.629999999999998117 $149 $230 forward @7 tangent #
coedge $-1 -1 $-1 $147 $174 $188 $228 forward $130 $-1 #
vertex $-1 -1 $-1 $151 $231 #
vertex $-1 -1 $-1 $148 $232 #
ellipse-curve $-1 -1 $-1 -17.5 13.3499710445747386 1.129999999999997229 0 3.673940397442059375e-16 1 -0.5303300858899105963 -0.5303300858899105963 1.948401126529859708e-16 1 I I #
straight-curve $-1 -1 $-1 -16.75 13.89997104457473753 1.129999999999997229 0 -1 3.673940397442059375e-16 F -10010.00000100000034 F 9990.000001000000339 #
point $-1 -1 $-1 -16.75 14.44997104457474002 1.129999999999997229 #
ellipse-curve $-1 -1 $-1 -17.5 13.34997104457473682 0 0 3.673940397442059375e-16 1 -0.5303300858899105963 -0.5303300858899105963 1.948401126529859708e-16 1 I I #
point $-1 -1 $-1 -16.75 13.34997104457473682 0 #
point $-1 -1 $-1 -18.25 13.34997104457473682 0 #
vertex $-1 -1 $-1 $228 $233 #
straight-curve $-1 -1 $-1 -18.25 14.44997104457473824 -2.5 0 3.673940397442059375e-16 1 I I #
coedge $-1 -1 $-1 $166 $166 $164 $203 forward $173 $-1 #
edge $-1 -1 $-1 $168 -7.556313295040565592 $170 -1.868464665728815755 $202 $234 reversed @7 unknown #
cone-surface $-1 -1 $-1 -17.5 13.39997104457474109 4.099999999999997868 0 -3.673940397442059375e-16 -1 0.5230000000000000204 0 0 1 I I 0 1 0.4450000000000000067 forward I I I I #
ellipse-curve $-1 -1 $-1 -17.5 14.39997104457473931 1.129999999999997229 -0 3.673940397442059375e-16 1 0.5230000000000000204 0 0 1 I I #
point $-1 -1 $-1 -17.34660834442512112 13.89997104457474109 1.129999999999997229 #
point $-1 -1 $-1 -17.65339165557487888 13.89997104457473753 1.129999999999997229 #
ellipse-curve $-1 -1 $-1 -17.5 14.44997104457474002 1.129999999999997229 0 3.673940397442059375e-16 1 0.5303300858899105963 0.5303300858899105963 -1.948401126529859708e-16 1 I I #
face $-1 -1 $-1 $235 $236 $8 $-1 $237 forward single #
loop $-1 -1 $-1 $238 $239 $177 #
torus-surface $-1 -1 $-1 -17.5 9.070000000000000284 7.250000000000000888 1 0 2.220446049250313081e-16 0.8000000000000000444 0.1099999999999999867 2.220446049250313081e-16 0 -1 forward_v I I I I #
coedge $-1 -1 $-1 $240 $241 $213 $242 forward $178 $-1 #
coedge $-1 -1 $-1 $180 $180 $212 $242 reversed $136 $-1 #
coedge $-1 -1 $-1 $243 $244 $180 $215 forward $245 $-1 #
edge $-1 -1 $-1 $246 2.083111026137260957 $247 4.200074281042325275 $214 $248 forward @7 unknown #
coedge $-1 -1 $-1 $182 $181 $249 $250 forward $97 $-1 #
coedge $-1 -1 $-1 $251 $252 $181 $218 reversed $253 $-1 #
edge $-1 -1 $-1 $225 -1.849043149529695063 $254 -1.292549504060098275 $181 $255 forward @7 unknown #
coedge $-1 -1 $-1 $256 $257 $182 $220 forward $258 $-1 #
edge $-1 -1 $-1 $224 -4.434142157649890947 $259 1.292549504060098275 $219 $260 reversed @7 unknown #
coedge $-1 -1 $-1 $261 $183 $257 $262 reversed $223 $-1 #
coedge $-1 -1 $-1 $183 $261 $251 $263 reversed $223 $-1 #
loop $-1 -1 $-1 $-1 $261 $264 #
vertex $-1 -1 $-1 $220 $265 #
vertex $-1 -1 $-1 $184 $266 #
straight-curve $-1 -1 $-1 -17.64282856857085591 11 4.200000000000000178 0 0 1 I I #
point $-1 -1 $-1 -18.01999999999999957 11.5 7.650000000000000355 #
edge $-1 -1 $-1 $200 -0.5500000000000024869 $193 0.5499999999999989342 $188 $267 reversed @7 unknown #
straight-curve $-1 -1 $-1 -18.25 13.34997104457473682 -2.5 0 -3.673940397442059375e-16 -1 I I #
straight-curve $-1 -1 $-1 -16.75 13.34997104457473682 -2.5 0 3.673940397442059375e-16 1 I I #
point $-1 -1 $-1 -16.75 13.3499710445747386 1.129999999999997229 #
point $-1 -1 $-1 -18.25 13.3499710445747386 1.129999999999997229 #
point $-1 -1 $-1 -18.25 14.44997104457474002 1.129999999999997229 #
ellipse-curve $-1 -1 $-1 -17.5 13.39997104457473931 1.129999999999997229 -0 3.673940397442059375e-16 1 0.5230000000000000204 0 0 1 I I #
face $-1 -1 $-1 $268 $269 $8 $-1 $270 forward single #
loop $-1 -1 $-1 $-1 $271 $209 #
plane-surface $-1 -1 $-1 -17.06000000000000227 10 7.799999999999999822 -1 0 0 0 0 1 forward_v I I I I #
loop $-1 -1 $-1 $-1 $272 $177 #
coedge $-1 -1 $-1 $239 $239 $273 $274 reversed $210 $-1 #
coedge $-1 -1 $-1 $275 $212 $244 $276 forward $178 $-1 #
coedge $-1 -1 $-1 $212 $277 $243 $278 forward $178 $-1 #
edge $-1 -1 $-1 $247 -0.8359205528334007207 $246 0 $212 $279 forward @7 unknown #
coedge $-1 -1 $-1 $280 $214 $241 $278 reversed $245 $-1 #
coedge $-1 -1 $-1 $214 $281 $240 $276 reversed $245 $-1 #
loop $-1 -1 $-1 $282 $214 $283 #
vertex $-1 -1 $-1 $276 $284 #
vertex $-1 -1 $-1 $215 $285 #
ellipse-curve $-1 -1 $-1 -17.5 12.40000000000000036 7.299999999999999822 -0 -0 -1 0 0.2999999999999999889 0 1 I I #
coedge $-1 -1 $-1 $286 $287 $216 $250 reversed $288 $-1 #
edge $-1 -1 $-1 $254 -3.400000000000001243 $259 -3.099999999999999645 $216 $289 forward @7 unknown #
coedge $-1 -1 $-1 $290 $217 $222 $263 forward $253 $-1 #
coedge $-1 -1 $-1 $217 $291 $286 $292 forward $253 $-1 #
loop $-1 -1 $-1 $-1 $291 $268 #
vertex $-1 -1 $-1 $250 $293 #
ellipse-curve $-1 -1 $-1 -17.5 11.5 7.600000000000001421 0 0 1 0.5200000000000000178 0 0 1 I I #
coedge $-1 -1 $-1 $294 $219 $287 $295 forward $258 $-1 #
coedge $-1 -1 $-1 $219 $296 $221 $262 forward $258 $-1 #
loop $-1 -1 $-1 $-1 $257 $283 #
vertex $-1 -1 $-1 $250 $297 #
ellipse-curve $-1 -1 $-1 -17.5 11.5 7.299999999999999822 0 0 1 0.5200000000000000178 0 0 1 I I #
coedge $-1 -1 $-1 $222 $221 $298 $299 forward $223 $-1 #
edge $-1 -1 $-1 $300 -3.703662456595427699 $224 -1.849043149529695063 $257 $301 reversed @7 unknown #
edge $-1 -1 $-1 $225 1.849043149529695063 $302 3.703662456595422814 $251 $303 forward @7 unknown #
face $-1 -1 $-1 $304 $223 $8 $-1 $305 forward single #
point $-1 -1 $-1 -17.64282856857085591 11 7.299999999999999822 #
point $-1 -1 $-1 -17.64282856857085591 11 7.600000000000001421 #
straight-curve $-1 -1 $-1 -18.25 13.89997104457473753 1.129999999999997229 0 1 -3.673940397442059375e-16 F -9990.000001000000339 F 10010.00000100000034 #
face $-1 -1 $-1 $264 $253 $8 $-1 $306 forward single #
loop $-1 -1 $-1 $-1 $307 $235 #
plane-surface $-1 -1 $-1 -17.93999999999999773 10 7.799999999999999822 1 0 0 0 0 -1 forward_v I I I I #
coedge $-1 -1 $-1 $308 $309 $310 $311 reversed $236 $-1 #
coedge $-1 -1 $-1 $272 $272 $312 $313 reversed $238 $-1 #
coedge $-1 -1 $-1 $273 $273 $239 $274 forward $282 $-1 #
edge $-1 -1 $-1 $314 0 $314 0.652271189617599334 $273 $315 forward @7 unknown #
coedge $-1 -1 $-1 $316 $240 $317 $318 forward $178 $-1 #
edge $-1 -1 $-1 $246 1.141523032679370164 $319 2.356194490192344837 $244 $320 forward @7 unknown #
coedge $-1 -1 $-1 $241 $316 $321 $322 forward $178 $-1 #
edge $-1 -1 $-1 $323 -0.785398163397448279 $247 0.4292732941155264492 $243 $320 forward @7 unknown #
intcurve-curve $-1 -1 $-1 forward { surfintcur full nubs 3 open 11 
	-0.8359205528334007207 3 -0.6922238300491505569 2 -0.6203754686570255306 2 -0.5485271072649005042 2 -0.4832436918408005155 2 
	-0.4179602764167003048 2 -0.3526768609926000941 2 -0.2873934455685001055 2 -0.2155450841763750791 2 -0.1436967227842500527 2 
	0 3 
	-17.76148365612815283 12.25294117647058911 7.300000000000000711 
	-17.76148365612815283 12.25294117647058911 7.252101092405251137 
	-17.75010556476846801 12.25746977686541683 7.202107460524657334 
	-17.71609104171180249 12.26829397838070435 7.1369943639246749 
	-17.70199050024908871 12.27248609936372858 7.116859712855491793 
	-17.66920072408706943 12.28086075358494966 7.081419861941226301 
	-17.65050865929605806 12.28502992833888641 7.066114125188512674 
	-17.61190326018409991 12.29183956708378389 7.042604335197227172 
	-17.59037938702320503 12.29487822107472539 7.032916750460024957 
	-17.54531005170802871 12.29897196425739736 7.020191459393847921 
	-17.52176113847470162 12.30000000000000071 7.017157287525380482 
	-17.47823886152529838 12.30000000000000071 7.017157287525380482 
	-17.45468994829197484 12.29897196425739736 7.020191459393846145 
	-17.40962061297679853 12.29487822107472894 7.032916750460019628 
	-17.38809673981590009 12.29183956708378389 7.042604335197227172 
	-17.34949134070394194 12.28502992833888641 7.066114125188512674 
	-17.33079927591293057 12.28086075358494966 7.081419861941228078 
	-17.29800949975091129 12.27248609936372858 7.116859712855491793 
	-17.28390895828820106 12.26829397838070079 7.136994363924673124 
	-17.24989443523153199 12.25746977686541506 7.20210746052465467 
	-17.23851634387184717 12.25294117647058911 7.252101092405251137 
	-17.23851634387184717 12.25294117647058911 7.300000000000000711 
	0.0002285593711656079378 
	
	cone -17.5 11.55000000000000071 3.600000000000000089 0 0 -1 -0.5303300858899105963 0.5303300858899105963 0 1 I I -0 -1 0.5999999999999999778 forward I I I I 
	sphere -17.5 12.40000000000000036 7.299999999999999822 0.2999999999999999889 1 0 0 0 0 1 forward_v I I I I 
	nullbs 
	nullbs 
	I I 
	0 
	0 
	0 
	} I I #
coedge $-1 -1 $-1 $324 $243 $325 $326 forward $245 $-1 #
coedge $-1 -1 $-1 $244 $324 $327 $328 forward $245 $-1 #
loop $-1 -1 $-1 $258 $273 $283 #
face $-1 -1 $-1 $329 $245 $8 $-1 $330 forward single #
point $-1 -1 $-1 -17.23851634387184717 12.25294117647058911 7.300000000000000711 #
point $-1 -1 $-1 -17.76148365612815283 12.25294117647058911 7.300000000000000711 #
coedge $-1 -1 $-1 $331 $249 $252 $292 reversed $288 $-1 #
coedge $-1 -1 $-1 $249 $331 $256 $295 reversed $288 $-1 #
loop $-1 -1 $-1 $-1 $331 $304 #
straight-curve $-1 -1 $-1 -17.35717143142914409 11 4.200000000000000178 -0 -0 -1 I I #
coedge $-1 -1 $-1 $332 $251 $333 $334 forward $253 $-1 #
coedge $-1 -1 $-1 $252 $332 $309 $335 forward $253 $-1 #
edge $-1 -1 $-1 $336 5.72111550417395609 $254 7.575734811239684063 $252 $303 forward @7 unknown #
point $-1 -1 $-1 -17.35717143142914409 11 7.600000000000001421 #
coedge $-1 -1 $-1 $337 $256 $308 $338 reversed $258 $-1 #
edge $-1 -1 $-1 $259 -7.575734811239684063 $339 -5.721115504173951649 $256 $301 reversed @7 unknown #
coedge $-1 -1 $-1 $257 $337 $340 $341 reversed $258 $-1 #
point $-1 -1 $-1 -17.35717143142914409 11 7.299999999999999822 #
coedge $-1 -1 $-1 $340 $333 $261 $299 reversed $269 $-1 #
edge $-1 -1 $-1 $300 3.099999999999999645 $302 3.400000000000001243 $261 $342 forward @7 unknown #
vertex $-1 -1 $-1 $262 $343 #
ellipse-curve $-1 -1 $-1 -17.5 10.5 7.299999999999999822 0 0 1 0.5200000000000000178 0 0 1 I I #
vertex $-1 -1 $-1 $299 $344 #
ellipse-curve $-1 -1 $-1 -17.5 10.5 7.600000000000001421 0 0 1 0.5200000000000000178 0 0 1 I I #
face $-1 -1 $-1 $283 $288 $8 $-1 $305 forward single #
cone-surface $-1 -1 $-1 -17.5 10.5 4.200000000000000178 0 0 1 0.5200000000000000178 0 0 1 I I 0 1 0.4450000000000000067 forward I I I I #
plane-surface $-1 -1 $-1 -17.5 10.5 7.600000000000001421 0 0 1 1 0 0 forward_v I I I I #
coedge $-1 -1 $-1 $333 $340 $345 $346 reversed $269 $-1 #
coedge $-1 -1 $-1 $347 $271 $294 $338 forward $236 $-1 #
coedge $-1 -1 $-1 $271 $347 $291 $335 reversed $236 $-1 #
coedge $-1 -1 $-1 $348 $349 $271 $311 forward $350 $-1 #
edge $-1 -1 $-1 $351 3.099999999999999645 $352 3.400000000000001243 $310 $353 forward @7 unknown #
coedge $-1 -1 $-1 $312 $312 $272 $313 forward $354 $-1 #
edge $-1 -1 $-1 $355 0 $355 0.8256138098899319377 $312 $356 forward @7 unknown #
vertex $-1 -1 $-1 $274 $357 #
intcurve-curve $-1 -1 $-1 forward { surfintcur full nubs 3 periodic 17 
	0 3 0.04070514075855725944 2 0.08144181522648870353 2 0.1222221047829861601 2 0.1630488095997038034 2 
	0.2038860460594283663 2 0.2446910909320080263 2 0.2854405215867013568 2 0.3261355948087976686 2 0.3668306680308973666 2 
	0.4075800986855906971 2 0.448385143558168886 2 0.4892223800178944204 2 0.5300490848346137707 2 0.5708293743911078133 2 
	0.6115660488590420885 2 0.652271189617599334 3 
	-17.5 9.978625335328043633 7.299999999999999822 
	-17.48643161974714744 9.978625335328043633 7.299999999999999822 
	-17.47046306938041127 9.975445593726455229 7.299999999999999822 
	-17.4453854361097207 9.965049119680724488 7.299999999999999822 
	-17.43184169439932418 9.955989134915006034 7.299999999999999822 
	-17.41263708477934813 9.93676628350246105 7.299999999999999822 
	-17.40358243579724373 9.923197994943445011 7.299999999999999822 
	-17.39318132703150965 9.898062685651931147 7.299999999999999822 
	-17.39000000000000057 9.882044872739138341 7.299999999999999822 
	-17.39000000000000057 9.854823558980324805 7.299999999999999822 
	-17.39318260872050459 9.838801705691802013 7.299999999999999822 
	-17.40358518699063595 9.813654275098183888 7.299999999999999822 
	-17.41264235394975302 9.800075762786329747 7.299999999999999822 
	-17.43185039847905671 9.780838669835553389 7.299999999999999822 
	-17.445395032917137 9.771770844642720277 7.299999999999999822 
	-17.47047096095693064 9.761367919262355031 7.299999999999999822 
	-17.48643497559263338 9.758186021363410845 7.299999999999999822 
	-17.51356502440736662 9.758186021363410845 7.299999999999999822 
	-17.52952903904307291 9.761367919262353254 7.299999999999999822 
	-17.55460496708286655 9.771770844642720277 7.299999999999999822 
	-17.56814960152094685 9.780838669835553389 7.299999999999999822 
	-17.58735764605025054 9.800075762786329747 7.299999999999999822 
	-17.59641481300937116 9.813654275098182111 7.299999999999999822 
	-17.60681739127949896 9.838801705691800237 7.299999999999999822 
	-17.60999999999999943 9.854823558980324805 7.299999999999999822 
	-17.60999999999999943 9.882044872739140118 7.299999999999999822 
	-17.60681867296849035 9.898062685651932924 7.299999999999999822 
	-17.59641756420275627 9.923197994943445011 7.299999999999999822 
	-17.58736291522065187 9.93676628350246105 7.299999999999999822 
	-17.56815830560067937 9.95598913491500781 7.299999999999999822 
	-17.5546145638902793 9.965049119680724488 7.299999999999999822 
	-17.52953693061958873 9.975445593726455229 7.299999999999999822 
	-17.51356838025285256 9.978625335328043633 7.299999999999999822 
	-17.5 9.978625335328043633 7.299999999999999822 
	0.0002338283172628786999 
	
	torus -17.5 9.070000000000000284 7.250000000000000888 1 0 2.220446049250313081e-16 0.8000000000000000444 0.1099999999999999867 2.220446049250313081e-16 0 -1 forward_v I I I I 
	plane -17.5 11 7.299999999999999822 0 0 1 1 0 0 forward_v I I I I 
	nullbs 
	nullbs 
	I I 
	0 
	0 
	0 
	} I I #
coedge $-1 -1 $-1 $277 $275 $358 $359 forward $178 $-1 #
coedge $-1 -1 $-1 $327 $360 $275 $318 reversed $361 $-1 #
edge $-1 -1 $-1 $319 -3.699999999999999734 $362 3.600000000000000089 $317 $363 forward @7 tangent #
vertex $-1 -1 $-1 $276 $364 #
ellipse-curve $-1 -1 $-1 -17.5 11.55000000000000071 7.299999999999999822 -0 -0 -1 -0.5303300858899105963 0.5303300858899105963 0 1 I I #
coedge $-1 -1 $-1 $365 $325 $277 $322 reversed $366 $-1 #
edge $-1 -1 $-1 $367 -3.600000000000000089 $323 3.699999999999999734 $321 $368 forward @7 tangent #
vertex $-1 -1 $-1 $326 $369 #
coedge $-1 -1 $-1 $281 $280 $370 $371 reversed $245 $-1 #
coedge $-1 -1 $-1 $321 $372 $280 $326 reversed $366 $-1 #
edge $-1 -1 $-1 $323 -0.5500000000000007105 $373 0.5500000000000007105 $325 $374 forward @7 unknown #
coedge $-1 -1 $-1 $375 $317 $281 $328 reversed $361 $-1 #
edge $-1 -1 $-1 $376 -0.5500000000000007105 $319 0.5500000000000007105 $327 $377 forward @7 unknown #
face $-1 -1 $-1 $378 $379 $8 $-1 $380 forward single #
plane-surface $-1 -1 $-1 -17.5 11 7.299999999999999822 0 0 1 1 0 0 forward_v I I I I #
coedge $-1 -1 $-1 $287 $286 $347 $381 forward $288 $-1 #
coedge $-1 -1 $-1 $291 $290 $348 $382 forward $253 $-1 #
coedge $-1 -1 $-1 $298 $307 $290 $334 reversed $269 $-1 #
edge $-1 -1 $-1 $302 -0.02712812921102170094 $383 0.1834793265217466995 $290 $384 forward @7 unknown #
edge $-1 -1 $-1 $352 -0.1834793265217466995 $336 0.02712812921102170094 $291 $385 forward @7 unknown #
vertex $-1 -1 $-1 $292 $386 #
coedge $-1 -1 $-1 $296 $294 $349 $387 reversed $258 $-1 #
edge $-1 -1 $-1 $351 -0.433479326521734265 $339 -0.2228718707889765227 $308 $388 reversed @7 unknown #
vertex $-1 -1 $-1 $338 $389 #
coedge $-1 -1 $-1 $307 $298 $296 $341 forward $269 $-1 #
edge $-1 -1 $-1 $300 0.2228718707889765227 $390 0.433479326521734265 $340 $391 reversed @7 unknown #
straight-curve $-1 -1 $-1 -17.93999999999999773 10.2228718707889783 4.200000000000000178 0 0 1 I I #
point $-1 -1 $-1 -17.93999999999999773 10.22287187078897652 7.299999999999999822 #
point $-1 -1 $-1 -17.93999999999999773 10.2228718707889783 7.600000000000001421 #
coedge $-1 -1 $-1 $349 $348 $307 $346 forward $350 $-1 #
edge $-1 -1 $-1 $383 -3.400000000000001243 $390 -3.099999999999999645 $345 $392 forward @7 unknown #
coedge $-1 -1 $-1 $309 $308 $331 $381 reversed $236 $-1 #
coedge $-1 -1 $-1 $345 $310 $332 $382 reversed $350 $-1 #
coedge $-1 -1 $-1 $310 $345 $337 $387 forward $350 $-1 #
loop $-1 -1 $-1 $393 $310 $378 #
vertex $-1 -1 $-1 $387 $394 #
vertex $-1 -1 $-1 $335 $395 #
straight-curve $-1 -1 $-1 -17.06000000000000227 10.4334793265217467 4.200000000000000178 0 0 1 I I #
loop $-1 -1 $-1 $396 $312 $397 #
vertex $-1 -1 $-1 $313 $398 #
intcurve-curve $-1 -1 $-1 forward { surfintcur full nubs 3 periodic 19 
	0 3 0.02826162016065079594 2 0.06047757553494959026 2 0.1045103839556355829 2 0.1658651126685588006 2 
	0.2467994758354815632 2 0.3298189002075701537 2 0.3768193808351419372 2 0.4068939981784514548 2 0.4298212514669338402 2 
	0.452357362165792698 2 0.4826364780633028984 2 0.5305219162354710694 2 0.602628722503373182 2 0.6821056851770981311 2 
	0.7397452718037701436 2 0.7824050076358387562 2 0.8045524188371945273 2 0.8256138098899319377 3 
	-17.50000000000000355 9.699999999999999289 6.593341793624720282 
	-17.5094205400535543 9.699999999999999289 6.59334179362472117 
	-17.51870678786540836 9.700180173048341459 6.595188954953877136 
	-17.53779992800747323 9.700884020553921516 6.602766361615177715 
	-17.547121851895362 9.701435443141015469 6.608852920490228655 
	-17.56677996523654173 9.702892230244067662 6.626502808941551415 
	-17.57617082209144854 9.703839948585434527 6.639180784408561742 
	-17.59409878929427862 9.705852347632204058 6.671967936566261415 
	-17.60190871360120468 9.706943070664557638 6.69494702925389884 
	-17.61191198165598593 9.708374254887900179 6.75487999335031386 
	-17.6110569696571666 9.708238156174104461 6.79116942436295723 
	-17.59770778050812368 9.706360447408297176 6.86141772281688489 
	-17.58515432126200295 9.704679623156080126 6.893908381573229605 
	-17.56031452090495648 9.702374773125981733 6.93297766235890478 
	-17.55010885358856498 9.701592600993340199 6.944965977182577355 
	-17.5318335102790428 9.70064186354372282 6.959226355282689624 
	-17.52380158269818367 9.700325486329152369 6.963846084685158644 
	-17.50820102668270906 9.700014465350127679 6.968369619033549789 
	-17.50124965268515354 9.699967302978107497 6.969048888519943752 
	-17.48714355619379646 9.700077598649777144 6.96745090498739561 
	-17.48041459532073105 9.700228527523957922 6.965266834637915849 
	-17.46544498826013125 9.700747244025063054 6.957647953453275136 
	-17.4576247797824351 9.701166221784168542 6.951426442618634738 
	-17.43983681785817197 9.702337203157268775 6.933386489261572194 
	-17.42978337597501337 9.703243237141640165 6.918939940960469492 
	-17.40805402170994043 9.705541572236212389 6.876641848243832733 
	-17.39791484549198586 9.706964008218712081 6.845282993500171109 
	-17.38775029736012812 9.708428023891309877 6.77325661418228897 
	-17.3892809863797666 9.708164607145237213 6.734894966506812963 
	-17.40441993818862088 9.706087562950022729 6.675317373803394183 
	-17.41435668775945089 9.704795450176064264 6.653310943864178206 
	-17.43657594608670891 9.702626231071468155 6.622841062466039652 
	-17.44747048770537035 9.7017466207441867 6.61248707815719694 
	-17.46557670296507325 9.700764765531777911 6.601461156446859491 
	-17.47223242734579074 9.700480691535826594 6.598410879456604761 
	-17.48605451523848231 9.700099373414310833 6.594367348268447948 
	-17.49297953631575808 9.699999999999999289 6.593341793624720282 
	-17.50000000000000355 9.699999999999999289 6.593341793624720282 
	2.122264800897055701e-05 
	
	torus -17.5 9.070000000000000284 7.250000000000000888 1 0 2.220446049250313081e-16 0.8000000000000000444 0.1099999999999999867 2.220446049250313081e-16 0 -1 forward_v I I I I 
	cone -17.5 10.44999999999999929 3.600000000000000089 0 0 -1 0.5303300858899105963 -0.5303300858899105963 0 1 I I 0 1 0.5999999999999999778 forward I I I I 
	nullbs 
	nullbs 
	I I 
	0 
	0 
	0 
	} I I #
point $-1 -1 $-1 -17.5 9.978625335328043633 7.299999999999999822 #
coedge $-1 -1 $-1 $399 $400 $316 $359 reversed $401 $-1 #
edge $-1 -1 $-1 $362 -2.356194490192344837 $367 0.785398163397448279 $358 $402 reversed @7 unknown #
coedge $-1 -1 $-1 $317 $375 $399 $403 reversed $361 $-1 #
loop $-1 -1 $-1 $-1 $375 $404 #
vertex $-1 -1 $-1 $403 $405 #
straight-curve $-1 -1 $-1 -16.75 11.55000000000000071 3.600000000000000089 0 0 -1 I I #
point $-1 -1 $-1 -16.75 11.55000000000000071 7.299999999999999822 #
coedge $-1 -1 $-1 $372 $321 $400 $406 reversed $366 $-1 #
loop $-1 -1 $-1 $-1 $372 $407 #
vertex $-1 -1 $-1 $359 $408 #
straight-curve $-1 -1 $-1 -18.25 11.55000000000000071 3.600000000000000089 0 0 1 I I #
point $-1 -1 $-1 -18.25 11.55000000000000071 7.299999999999999822 #
coedge $-1 -1 $-1 $409 $410 $324 $371 forward $396 $-1 #
edge $-1 -1 $-1 $376 -0.785398163397448279 $373 2.356194490192344837 $324 $411 forward @7 unknown #
coedge $-1 -1 $-1 $325 $365 $409 $412 reversed $366 $-1 #
vertex $-1 -1 $-1 $371 $413 #
straight-curve $-1 -1 $-1 -18.25 11 7.299999999999999822 0 -1 0 F -9990.000001000000339 F 10010.00000100000034 #
coedge $-1 -1 $-1 $360 $327 $410 $414 reversed $361 $-1 #
vertex $-1 -1 $-1 $328 $415 #
straight-curve $-1 -1 $-1 -16.75 11 7.299999999999999822 0 1 0 F -10010.00000100000034 F 9990.000001000000339 #
face $-1 -1 $-1 $416 $350 $8 $-1 $417 reversed single #
loop $-1 -1 $-1 $418 $419 $329 #
cone-surface $-1 -1 $-1 -17.5 10.5 0.2250000000000000888 0 0 1 -0.4199999999999996514 0 0 1 I I -0.70710678118655379 -0.7071067811865412445 0.4199999999999996514 forward I I I I #
edge $-1 -1 $-1 $336 -3.400000000000001243 $339 -3.099999999999999645 $331 $420 forward @7 unknown #
edge $-1 -1 $-1 $383 -3.291639709166755079 $352 0.1500470555769621572 $332 $421 reversed @7 unknown #
vertex $-1 -1 $-1 $382 $422 #
straight-curve $-1 -1 $-1 -17.93999999999999773 10.25 7.600000000000001421 0 1 0 I I #
straight-curve $-1 -1 $-1 -17.06000000000000227 10.25 7.600000000000001421 0 -1 0 I I #
point $-1 -1 $-1 -17.06000000000000227 10.2228718707889783 7.600000000000001421 #
edge $-1 -1 $-1 $390 -2.991545598012802731 $351 -0.1500470555769903847 $349 $423 forward @7 unknown #
straight-curve $-1 -1 $-1 -17.06000000000000227 10 7.299999999999999822 0 1 0 F -10008.75000100000034 F 9991.250001000000339 #
point $-1 -1 $-1 -17.06000000000000227 10.22287187078897652 7.299999999999999822 #
vertex $-1 -1 $-1 $387 $424 #
straight-curve $-1 -1 $-1 -17.93999999999999773 10 7.299999999999999822 0 -1 0 F -9991.250001000000339 F 10008.75000100000034 #
straight-curve $-1 -1 $-1 -17.93999999999999773 10.4334793265217467 4.200000000000000178 0 0 -1 I I #
loop $-1 -1 $-1 $-1 $425 $378 #
point $-1 -1 $-1 -17.06000000000000227 10.43347932652173427 7.299999999999999822 #
point $-1 -1 $-1 -17.06000000000000227 10.4334793265217467 7.600000000000001421 #
loop $-1 -1 $-1 $-1 $426 $397 #
face $-1 -1 $-1 $404 $354 $8 $-1 $427 forward single #
point $-1 -1 $-1 -17.50000000000000355 9.699999999999999289 6.593341793624720282 #
coedge $-1 -1 $-1 $428 $358 $360 $403 forward $401 $-1 #
coedge $-1 -1 $-1 $358 $428 $365 $406 forward $401 $-1 #
loop $-1 -1 $-1 $-1 $428 $429 #
ellipse-curve $-1 -1 $-1 -17.5 11.55000000000000071 0 -0 -0 -1 -0.5303300858899105963 0.5303300858899105963 0 1 I I #
edge $-1 -1 $-1 $362 -0.5500000000000007105 $430 0.5500000000000007105 $360 $431 reversed @7 unknown #
face $-1 -1 $-1 $429 $361 $8 $-1 $432 reversed single #
point $-1 -1 $-1 -16.75 11.55000000000000071 0 #
edge $-1 -1 $-1 $433 -0.5500000000000007105 $367 0.5500000000000007105 $365 $434 reversed @7 unknown #
face $-1 -1 $-1 $-1 $366 $8 $-1 $435 reversed single #
point $-1 -1 $-1 -18.25 11.55000000000000071 0 #
coedge $-1 -1 $-1 $426 $370 $372 $412 forward $396 $-1 #
coedge $-1 -1 $-1 $370 $426 $375 $414 forward $396 $-1 #
ellipse-curve $-1 -1 $-1 -17.5 10.44999999999999929 7.299999999999999822 -0 -0 -1 0.5303300858899105963 -0.5303300858899105963 0 1 I I #
edge $-1 -1 $-1 $373 -3.699999999999999734 $433 3.600000000000000089 $372 $436 forward @7 tangent #
point $-1 -1 $-1 -18.25 10.44999999999999929 7.299999999999999822 #
edge $-1 -1 $-1 $430 -3.600000000000000089 $376 3.699999999999999734 $375 $437 forward @7 tangent #
point $-1 -1 $-1 -16.75 10.44999999999999929 7.299999999999999822 #
face $-1 -1 $-1 $397 $438 $8 $-1 $439 reversed single #
cone-surface $-1 -1 $-1 -17.5 10.5 4.200000000000000178 0 0 1 0.4450000000000000067 0 0 1 I I 0 1 0.4450000000000000067 forward I I I I #
loop $-1 -1 $-1 $-1 $440 $329 #
coedge $-1 -1 $-1 $419 $419 $441 $442 forward $379 $-1 #
straight-curve $-1 -1 $-1 -17.06000000000000227 10.2228718707889783 4.200000000000000178 -0 -0 -1 I I #
ellipse-curve $-1 -1 $-1 -17.5 10.5 7.600000000000001421 0 0 1 0.4450000000000000067 0 0 1 I I #
point $-1 -1 $-1 -17.93999999999999773 10.4334793265217467 7.600000000000001421 #
ellipse-curve $-1 -1 $-1 -17.5 10.5 7.299999999999999822 0 0 1 0.4450000000000000067 0 0 1 I I #
point $-1 -1 $-1 -17.93999999999999773 10.43347932652173427 7.299999999999999822 #
coedge $-1 -1 $-1 $425 $425 $440 $443 reversed $393 $-1 #
coedge $-1 -1 $-1 $410 $409 $428 $444 forward $396 $-1 #
cone-surface $-1 -1 $-1 -17.5 10.44999999999999929 3.600000000000000089 0 0 -1 0.5303300858899105963 -0.5303300858899105963 0 1 I I 0 1 0.5999999999999999778 forward I I I I #
coedge $-1 -1 $-1 $400 $399 $426 $444 reversed $401 $-1 #
face $-1 -1 $-1 $407 $401 $8 $-1 $445 reversed single #
vertex $-1 -1 $-1 $444 $446 #
straight-curve $-1 -1 $-1 -16.75 11 0 0 1 0 F -10010.00000100000034 F 9990.000001000000339 #
plane-surface $-1 -1 $-1 -16.75 11 3.600000000000000089 -1 0 0 0 0 1 forward_v I I I I #
vertex $-1 -1 $-1 $406 $447 #
straight-curve $-1 -1 $-1 -18.25 11 0 0 -1 0 F -9990.000001000000339 F 10010.00000100000034 #
plane-surface $-1 -1 $-1 -18.25 11 3.600000000000000089 1 0 0 0 0 -1 forward_v I I I I #
straight-curve $-1 -1 $-1 -18.25 10.44999999999999929 3.600000000000000089 0 0 -1 I I #
straight-curve $-1 -1 $-1 -16.75 10.44999999999999929 3.600000000000000089 0 0 1 I I #
loop $-1 -1 $-1 $-1 $441 $416 #
plane-surface $-1 -1 $-1 -17.5 10.5 0.2000000000000001776 0 0 -1 -1 0 0 forward_v I I I I #
coedge $-1 -1 $-1 $440 $440 $425 $443 forward $418 $-1 #
coedge $-1 -1 $-1 $441 $441 $419 $442 reversed $438 $-1 #
edge $-1 -1 $-1 $448 -3.141592653589793116 $448 3.141592653589793116 $441 $449 forward @7 unknown #
edge $-1 -1 $-1 $450 -3.141592653589793116 $450 3.141592653589793116 $425 $451 forward @7 unknown #
edge $-1 -1 $-1 $433 -2.356194490192344837 $430 0.785398163397448279 $428 $452 reversed @7 unknown #
plane-surface $-1 -1 $-1 -17.5 11 0 0 0 1 1 0 0 forward_v I I I I #
point $-1 -1 $-1 -16.75 10.44999999999999929 0 #
point $-1 -1 $-1 -18.25 10.44999999999999929 0 #
vertex $-1 -1 $-1 $442 $453 #
ellipse-curve $-1 -1 $-1 -17.5 10.5 0.2000000000000001776 0 0 -1 -0.3949999999999992961 0 0 1 I I #
vertex $-1 -1 $-1 $443 $454 #
ellipse-curve $-1 -1 $-1 -17.5 10.5 0.25 0 0 1 -0.4450000000000000067 -0 -0 1 I I #
ellipse-curve $-1 -1 $-1 -17.5 10.44999999999999929 0 -0 -0 -1 0.5303300858899105963 -0.5303300858899105963 0 1 I I #
point $-1 -1 $-1 -17.10500000000000043 10.5 0.2000000000000001776 #
point $-1 -1 $-1 -17.05499999999999972 10.5 0.25 #
End-of-ACIS-data 